<svg width="45" height="50" viewBox="0 0 45 50" fill="none" xmlns="http://www.w3.org/2000/svg">
<path d="M27.3454 42.8889L32.4145 48L42.5526 37.7778M22.2763 2H10.1105C7.27159 2 5.85209 2 4.76777 2.55709C3.81394 3.04709 3.03848 3.82899 2.5525 4.79072C2 5.88404 2 7.3153 2 10.1778V39.8222C2 42.6847 2 44.1161 2.5525 45.2093C3.03848 46.171 3.81394 46.953 4.76777 47.4429C5.85209 48 7.27159 48 10.1105 48H18.4745M22.2763 2L37.4836 17.3333M22.2763 2V13.2444C22.2763 14.6757 22.2763 15.3913 22.5526 15.938C22.7956 16.4188 23.1832 16.8098 23.6602 17.0548C24.2023 17.3333 24.912 17.3333 26.3316 17.3333H37.4836M37.4836 17.3333V28.5778M12.1382 37.7778H18.4745M12.1382 27.5556H27.3454M12.1382 17.3333H14.6727" stroke="#3AAB9F" stroke-width="3" stroke-linecap="round" stroke-linejoin="round"/>
</svg>
