<svg width="46" height="33" viewBox="0 0 46 33" fill="none" xmlns="http://www.w3.org/2000/svg">
<g clip-path="url(#clip0_64_820)">
<path fill-rule="evenodd" clip-rule="evenodd" d="M31.1825 3.06292H40.7168C43.6229 3.06292 46 5.44041 46 8.34611V17.67C46 20.5753 43.6221 22.9532 40.7168 22.9532H36.6121C37.1994 25.2764 37.9107 27.3634 40.083 29.2906C35.9285 28.2282 32.7218 26.0801 30.3679 22.9532H29.6585C29.3826 22.9532 29.0937 22.9315 28.7964 22.8903C30.3661 21.619 31.4565 20.0232 31.4565 18.2952V14.4098C31.8032 14.6509 32.2243 14.792 32.6784 14.792C33.8629 14.792 34.8234 13.8314 34.8234 12.6474C34.8234 11.4633 33.8629 10.5027 32.6784 10.5027C32.2243 10.5027 31.8032 10.6439 31.4565 10.8846V5.06681C31.4569 4.37352 31.3607 3.70156 31.1825 3.06292ZM21.3585 10.8116C20.1602 10.8116 19.1888 11.7834 19.1888 12.9813C19.1888 14.1792 20.1606 15.151 21.3585 15.151C22.5564 15.151 23.5282 14.1792 23.5282 12.9813C23.5282 11.7834 22.5564 10.8116 21.3585 10.8116ZM8.04401 10.8116C6.84572 10.8116 5.87428 11.7834 5.87428 12.9813C5.87428 14.1792 6.84609 15.151 8.04401 15.151C9.24193 15.151 10.2137 14.1792 10.2137 12.9813C10.2137 11.7834 9.2423 10.8116 8.04401 10.8116ZM14.7011 10.8116C13.5028 10.8116 12.5313 11.7834 12.5313 12.9813C12.5313 14.1792 13.5028 15.151 14.7011 15.151C15.8993 15.151 16.8708 14.1792 16.8708 12.9813C16.8708 11.7834 15.8993 10.8116 14.7011 10.8116ZM22.0866 1.33717H7.31553C4.02687 1.33717 1.3368 4.02762 1.3368 7.3159V17.8666C1.3368 21.1545 4.02762 23.8453 7.31553 23.8453H11.9601C11.2956 26.474 10.4911 28.8361 8.03203 31.0163C12.7331 29.8143 16.362 27.3836 19.0255 23.8453H19.8285C23.1164 23.8453 28.0649 21.1548 28.0649 17.8666V7.31553C28.0653 4.02762 25.3749 1.33717 22.0866 1.33717ZM7.31553 0H22.0866H22.0885V0.00524089C24.1047 0.00598958 25.933 0.826188 27.2545 2.14801L27.2515 2.15063C28.5752 3.47546 29.3969 5.3034 29.3972 7.31515V17.8666H29.4025V17.8677H29.3972C29.3965 20.0187 27.9021 21.8927 25.9113 23.2014C24.0575 24.4203 21.7167 25.1768 19.8293 25.1768H19.6773C18.3438 26.8374 16.7963 28.2559 15.0241 29.4193C13.0644 30.7063 10.8475 31.6759 8.36108 32.3119L8.35996 32.3074C7.89203 32.4254 7.37617 32.285 7.03439 31.899C6.54699 31.348 6.59827 30.5061 7.14932 30.0187C8.23343 29.0577 8.95218 28.0575 9.4729 27.0085C9.76265 26.4249 9.99624 25.8151 10.1988 25.1825H7.31553H7.31366V25.1768C5.29816 25.1765 3.46947 24.3559 2.14801 23.0344C0.826188 21.7126 0.00524089 19.8835 0.00486654 17.8669L0.00524089 7.31553H0V7.31366H0.00524089C0.00561523 5.33934 0.795866 3.54359 2.07427 2.22812C2.09748 2.2008 2.12181 2.17384 2.14764 2.14801C3.46947 0.826188 5.29854 0.00524089 7.31515 0.00486654L7.31553 0ZM39.52 10.5027C38.336 10.5027 37.3754 11.4633 37.3754 12.6474C37.3754 13.8314 38.336 14.792 39.52 14.792C40.7045 14.792 41.665 13.8314 41.665 12.6474C41.665 11.4633 40.7045 10.5027 39.52 10.5027Z" fill="#3AAB9F"/>
</g>
<defs>
<clipPath id="clip0_64_820">
<rect width="46" height="32.3479" fill="white"/>
</clipPath>
</defs>
</svg>
