<svg width="42" height="46" viewBox="0 0 42 46" fill="none" xmlns="http://www.w3.org/2000/svg">
<g clip-path="url(#clip0_64_829)">
<path fill-rule="evenodd" clip-rule="evenodd" d="M20.8561 0C28.6605 4.94702 35.711 7.28745 41.762 6.73416C42.8188 28.1087 34.9252 40.7318 20.9369 46C7.42857 41.0691 -0.561536 28.9892 0.0310583 6.40998C7.13433 6.78171 14.1032 5.24613 20.8561 0ZM15.5197 21.1537H16.0581V19.9068C16.0581 18.5258 16.6024 17.2672 17.4795 16.3527C18.3633 15.431 19.5841 14.8587 20.9287 14.8587C22.2734 14.8587 23.4945 15.431 24.378 16.3527C25.2551 17.2672 25.7994 18.5258 25.7994 19.9068V21.1537H26.3377C26.7745 21.1537 27.1324 21.5112 27.1324 21.9485V30.3466C27.1324 30.7838 26.7745 31.1413 26.3377 31.1413H15.5197C15.0825 31.1413 14.725 30.7838 14.725 30.3466V21.9485C14.7246 21.5112 15.0825 21.1537 15.5197 21.1537ZM20.2762 26.6858L19.4186 28.9319H22.4381L21.6437 26.6551C22.148 26.3957 22.4927 25.8701 22.4927 25.2641C22.4927 24.4001 21.7923 23.6997 20.9283 23.6997C20.0643 23.6997 19.3643 24.4001 19.3643 25.2641C19.3643 25.8948 19.7379 26.4384 20.2762 26.6858ZM17.5629 21.1537H24.2941V19.9068C24.2941 18.9248 23.9119 18.0354 23.2961 17.393C22.687 16.7577 21.8489 16.3632 20.9283 16.3632C20.0082 16.3632 19.1696 16.7577 18.561 17.393C17.9448 18.0354 17.5629 18.9248 17.5629 19.9068V21.1537Z" fill="#3AAB9F"/>
</g>
<defs>
<clipPath id="clip0_64_829">
<rect width="41.8563" height="46" fill="white"/>
</clipPath>
</defs>
</svg>
