<svg width="38" height="46" viewBox="0 0 38 46" fill="none" xmlns="http://www.w3.org/2000/svg">
<g clip-path="url(#clip0_64_799)">
<path fill-rule="evenodd" clip-rule="evenodd" d="M3.29976 0H22.8835V13.1798C22.8835 13.6748 23.2938 14.0764 23.7996 14.0764H38V42.7711C38 43.6542 37.6292 44.461 37.0316 45.0477L37.0243 45.0549C36.4249 45.6379 35.6025 46 34.7012 46H3.29976C2.39106 46 1.56589 45.637 0.968358 45.0522C0.370821 44.4673 0 43.6596 0 42.7711V3.22892C0 2.34038 0.370821 1.5327 0.968358 0.947833C1.56589 0.362962 2.39106 0 3.29976 0ZM24.7165 0.200348C24.8007 0.255711 24.8775 0.321209 24.9451 0.395305L37.4786 12.2823H24.7165V0.200348ZM8.38111 37.7094C7.87444 37.7094 7.46415 37.3078 7.46415 36.8128C7.46415 36.3177 7.87444 35.9152 8.38111 35.9152H29.6189C30.1256 35.9152 30.5358 36.3177 30.5358 36.8128C30.5358 37.3078 30.1256 37.7094 29.6189 37.7094H8.38111ZM8.38111 30.8499C7.87444 30.8499 7.46415 30.4483 7.46415 29.9533C7.46415 29.4574 7.87444 29.0558 8.38111 29.0558H29.2885C29.7951 29.0558 30.2054 29.4574 30.2054 29.9533C30.2054 30.4483 29.7951 30.8499 29.2885 30.8499H8.38111ZM8.38111 23.9905C7.87444 23.9905 7.46415 23.5889 7.46415 23.093C7.46415 22.598 7.87444 22.1964 8.38111 22.1964H25.2985C25.8042 22.1964 26.2154 22.598 26.2154 23.093C26.2154 23.5889 25.8042 23.9905 25.2985 23.9905H8.38111ZM8.38111 17.1302C7.87444 17.1302 7.46415 16.7286 7.46415 16.2335C7.46415 15.7376 7.87444 15.336 8.38111 15.336H17.826C18.3327 15.336 18.743 15.7376 18.743 16.2335C18.743 16.7286 18.3327 17.1302 17.826 17.1302H8.38111ZM8.38111 10.2707C7.87444 10.2707 7.46415 9.86914 7.46415 9.37321C7.46415 8.87819 7.87444 8.47659 8.38111 8.47659H13.4671C13.9737 8.47659 14.384 8.87819 14.384 9.37321C14.384 9.86914 13.9737 10.2707 13.4671 10.2707H8.38111Z" fill="#3AAB9F"/>
</g>
<defs>
<clipPath id="clip0_64_799">
<rect width="38" height="46" fill="white"/>
</clipPath>
</defs>
</svg>
