<svg width="29" height="46" viewBox="0 0 29 46" fill="none" xmlns="http://www.w3.org/2000/svg">
<path d="M10.1795 9.09117C9.22252 9.09117 8.45319 8.31246 8.45319 7.36488C8.45319 6.4173 9.2319 5.63859 10.1795 5.63859C11.1364 5.63859 11.9058 6.4173 11.9058 7.36488C11.9058 8.31246 11.1364 9.09117 10.1795 9.09117ZM10.1795 10.1982C13.6321 10.1982 16.4373 13.0035 16.4373 16.456C16.4373 18.3606 15.5835 20.0587 14.2419 21.2127C13.6321 20.9125 12.9472 20.7436 12.1872 20.7436C12.0277 20.7436 11.8589 20.753 11.7275 20.7624C11.3616 20.7905 10.1044 20.9969 9.17561 22.3479C9.11932 22.4324 9.06302 22.5168 9.01611 22.6013C6.11707 22.0571 3.92168 19.5146 3.92168 16.456C3.92168 13.0035 6.71752 10.1982 10.1795 10.1982ZM8.031 17.8164C8.05915 18.3512 8.22802 18.7734 8.55639 19.0642C8.90353 19.3832 9.34448 19.5709 9.86049 19.6272V20.3214C9.86049 20.4153 9.93555 20.4903 10.0294 20.4903H10.6486C10.7424 20.4903 10.8175 20.4153 10.8175 20.3214V19.6084C11.2397 19.5333 11.5774 19.3645 11.8401 19.1112C12.1497 18.8109 12.3092 18.4169 12.3092 17.9196C12.3092 17.4036 12.1591 17.0002 11.8495 16.7281C11.5399 16.4467 11.0614 16.1746 10.4047 15.8931C10.1232 15.7712 9.92617 15.6492 9.82297 15.5272C9.71976 15.4053 9.66347 15.2458 9.66347 15.0487C9.66347 14.8517 9.71038 14.7016 9.8042 14.5703C9.89802 14.4483 10.0481 14.3826 10.2545 14.3826C10.4516 14.3826 10.6111 14.4577 10.733 14.6078C10.8268 14.7298 10.8831 14.8986 10.9019 15.1238C10.9113 15.227 11.0051 15.3021 11.0989 15.2927L12.1122 15.2739C12.2248 15.2739 12.3186 15.1801 12.3092 15.0675C12.2811 14.6266 12.1403 14.2513 11.8776 13.951C11.6055 13.6414 11.249 13.435 10.8081 13.3506V12.5907C10.8081 12.4968 10.733 12.4218 10.6392 12.4218H10.02C9.92617 12.4218 9.85111 12.4968 9.85111 12.5907V13.3318C9.38201 13.3975 8.99735 13.5758 8.70651 13.8572C8.38752 14.1668 8.21864 14.5609 8.21864 15.0394C8.21864 15.5648 8.36875 15.9682 8.67836 16.2403C8.97859 16.5123 9.46645 16.7844 10.1326 17.0471C10.4047 17.1691 10.6017 17.291 10.7049 17.413C10.8081 17.535 10.8644 17.7132 10.8644 17.929C10.8644 18.126 10.8081 18.2762 10.7049 18.3981C10.6017 18.5201 10.4422 18.5764 10.2452 18.5764C10.0012 18.5764 9.8042 18.5013 9.65409 18.3418C9.53212 18.2199 9.45707 18.0228 9.42892 17.7601C9.41954 17.6569 9.32572 17.5819 9.2319 17.5819L8.21864 17.6007C8.11544 17.61 8.031 17.7039 8.031 17.8164ZM27.7145 25.6129C27.1985 25.2095 21.8038 19.2237 20.359 18.3794V2.85213C20.359 1.27595 19.083 0 17.5068 0H2.85213C1.27595 0 0 1.27595 0 2.85213V30.0318C0 31.608 1.27595 32.8839 2.85213 32.8839H7.55252H9.2319L8.9692 30.651C8.88477 30.576 8.82847 30.5291 8.74403 30.454H7.80583H5.92943C6.01387 30.1069 6.04202 29.741 5.9951 29.3657C5.84499 28.1836 4.94432 27.1985 3.79033 26.9358C3.31185 26.8232 2.86151 26.8419 2.43932 26.9451V5.76994C2.91781 5.86376 3.4432 5.83561 3.97797 5.62921C4.55028 5.41342 5.02876 5.00061 5.36651 4.49398C5.84499 3.76219 5.92005 3.05854 5.80746 2.42056H14.5609C14.4483 3.04915 14.5234 3.73404 14.9831 4.46584C15.3114 4.99123 15.7993 5.40404 16.3716 5.61982C16.9158 5.82623 17.4412 5.85437 17.929 5.76055V26.4104V32.3398C16.9345 31.608 15.8181 29.3188 15.8181 29.3188C15.8181 29.3188 15.2739 23.2205 12.1872 23.2205C12.1028 23.2205 12.0277 23.2205 11.9433 23.2299C11.9433 23.2299 9.60718 23.4269 11.5399 30.1163L12.403 37.5374C12.403 37.5374 13.3694 41.5717 16.0339 44.3581V45.1931C16.0339 45.6341 16.3904 46 16.8407 46H25.5285C25.9413 46 26.279 45.6904 26.3259 45.287C26.6355 42.4255 27.8177 31.8801 28.5213 30.0693C28.6527 29.7222 28.7746 29.3751 28.8215 29.0092C28.9341 28.071 28.906 26.5323 27.7145 25.6129Z" fill="#3AAB9F"/>
</svg>
