<svg width="44" height="46" viewBox="0 0 44 46" fill="none" xmlns="http://www.w3.org/2000/svg">
<g clip-path="url(#clip0_64_826)">
<path fill-rule="evenodd" clip-rule="evenodd" d="M31.8721 5.5516L16.1943 15.0788H20.6528L32.2277 8.04476L33.9272 7.01156L38.8275 15.0788H41.68C42.3014 15.0788 42.863 15.3333 43.271 15.7376C43.679 16.1457 43.9336 16.7072 43.9336 17.3249V43.7502C43.9336 44.3678 43.679 44.9294 43.2747 45.3337V45.3374C42.8667 45.7454 42.3052 45.9963 41.6838 45.9963H2.25358C1.63216 45.9963 1.07064 45.7454 0.662598 45.3374V45.3337C0.254557 44.9294 0 44.3678 0 43.7539V17.3249C0 16.7072 0.254557 16.1419 0.658854 15.7376C1.06689 15.3296 1.62842 15.0788 2.24984 15.0788H3.18571L27.5259 0.288249C27.8366 0.101074 28.1885 0 28.5516 0C28.7088 0 28.866 0.0187174 29.0195 0.0561523C29.5286 0.179688 29.9704 0.501628 30.2399 0.950846L32.7218 5.03499L31.8721 5.5516ZM2.20492 17.0778C2.11882 17.1714 2.04769 17.2762 1.99528 17.3923V20.6453H41.9308V17.3249C41.9308 17.2537 41.9046 17.1901 41.8597 17.1489H41.856C41.811 17.104 41.7474 17.0741 41.6763 17.0741H2.24984C2.23486 17.0741 2.21989 17.0741 2.20492 17.0778ZM5.9821 31.7111H13.1134V34.3802H5.9821V31.7111ZM5.9821 38.0301H25.9162V40.4372H5.9821V38.0301ZM32.2726 31.7111H39.404V34.3802H32.2726V31.7111ZM23.5091 31.7111H30.6405V34.3802H23.5091V31.7111ZM14.7456 31.7111H21.877V34.3802H14.7456V31.7111ZM41.9308 28.1286H1.99528V43.7502C1.99528 43.8213 2.02148 43.8849 2.07015 43.9299H2.07389C2.12256 43.9785 2.1862 44.0047 2.24984 44.0047H41.68C41.7474 44.0047 41.811 43.9748 41.8597 43.9299C41.9084 43.8812 41.9346 43.8175 41.9346 43.7502V28.1286H41.9308Z" fill="#3AAB9F"/>
</g>
<defs>
<clipPath id="clip0_64_826">
<rect width="43.9261" height="46" fill="white"/>
</clipPath>
</defs>
</svg>
