<svg width="89" height="89" viewBox="0 0 89 89" fill="none" xmlns="http://www.w3.org/2000/svg">
<path d="M49.1547 14.4447C49.1547 14.6939 49.1547 14.9119 49.1547 15.13C49.1547 17.8756 49.1458 20.6213 49.1547 23.3625C49.1725 26.8112 51.3486 29.459 54.6549 30.0508C55.1355 30.1354 55.6339 30.1354 56.1234 30.1398C58.7667 30.1487 61.4055 30.1398 64.0488 30.1398C64.2936 30.1398 64.5339 30.1398 64.8276 30.1398V53.1463C63.1766 50.0536 60.8404 47.9131 57.6898 46.7294C54.5303 45.5457 51.3575 45.5858 48.2157 46.8229C42.8134 48.9544 39.5383 54.2633 40.0367 60.2619C40.4906 65.7042 44.6113 71.0487 51.5399 72.1211C51.3174 72.1211 51.0949 72.1211 50.8724 72.1211C42.9648 72.1211 35.0616 72.1211 27.1539 72.1211C23.6785 72.1211 21.0352 69.9762 20.4211 66.6743C20.3365 66.216 20.3276 65.7354 20.3276 65.2681C20.3232 50.6009 20.3232 35.9337 20.3276 21.271C20.3276 17.8623 22.3257 15.2813 25.503 14.5737C26.0192 14.458 26.5576 14.4135 27.0872 14.4135C34.2339 14.4046 41.3806 14.4046 48.5317 14.4091C48.7097 14.4091 48.8922 14.4269 49.1502 14.4447H49.1547ZM42.6444 40.6552C38.4658 40.6552 34.2917 40.6552 30.1132 40.6552C29.8462 40.6552 29.5792 40.6463 29.3166 40.6774C28.6892 40.7531 28.2397 41.2514 28.213 41.8744C28.173 42.7288 28.7604 43.2629 29.775 43.2629C38.3323 43.2629 46.8941 43.2629 55.4515 43.2629C55.5939 43.2629 55.7407 43.2673 55.8787 43.2495C56.5773 43.1516 57.0445 42.582 57.0134 41.8789C56.9778 41.1002 56.4349 40.6552 55.4826 40.6552C51.2017 40.6507 46.9253 40.6552 42.6444 40.6552ZM44.5801 36.7213C48.1223 36.7213 51.6645 36.7213 55.2067 36.7213C55.3891 36.7213 55.5761 36.7302 55.7585 36.7125C56.5284 36.6324 57.0223 36.1072 57.0134 35.3863C57.0045 34.6654 56.5061 34.1626 55.7274 34.087C55.625 34.078 55.5227 34.0825 55.4203 34.0825C48.1935 34.0825 40.9622 34.0825 33.7355 34.0825C33.5308 34.0825 33.3261 34.1003 33.1258 34.1448C32.5206 34.2917 32.1468 34.7722 32.1424 35.3863C32.1379 36.0004 32.4984 36.4988 33.0991 36.6457C33.3528 36.708 33.6242 36.7169 33.8912 36.7213C37.4557 36.7258 41.0157 36.7213 44.5801 36.7213ZM36.7615 26.2105C36.2275 26.2105 35.6979 26.2105 35.1639 26.2105C33.3439 26.2105 31.5194 26.2016 29.6993 26.2105C28.6936 26.2194 28.1018 26.8513 28.2264 27.7413C28.3243 28.4488 28.8894 28.8493 29.8195 28.8493C34.4252 28.8493 39.031 28.8493 43.6367 28.8493C43.877 28.8493 44.1351 28.8271 44.3621 28.7514C45.1453 28.4933 45.4746 27.5276 45.0296 26.8335C44.7047 26.3306 44.2063 26.206 43.6456 26.2105C41.3539 26.2149 39.0577 26.2105 36.7659 26.2105H36.7615ZM33.4462 49.8133C34.6922 49.8133 35.9427 49.8222 37.1887 49.8133C38.092 49.8044 38.6616 49.3015 38.675 48.5317C38.6839 47.744 38.0831 47.2056 37.1664 47.2056C34.6922 47.2011 32.218 47.2056 29.7438 47.2056C28.7915 47.2056 28.2175 47.6951 28.2086 48.4961C28.1997 49.3149 28.747 49.8088 29.7038 49.8133C30.9498 49.8222 32.2002 49.8133 33.4462 49.8133ZM32.8366 60.3242C31.773 60.3242 30.7095 60.3153 29.6459 60.3242C28.7426 60.333 28.1997 60.8448 28.2086 61.6414C28.2175 62.4201 28.7871 62.9274 29.6815 62.9319C31.7463 62.9408 33.8156 62.9408 35.8804 62.9319C36.7748 62.9319 37.34 62.4156 37.3489 61.6369C37.3578 60.8403 36.8149 60.3375 35.9071 60.3286C34.8836 60.3153 33.8601 60.3286 32.8366 60.3286V60.3242ZM32.129 56.3904C32.9478 56.3904 33.7666 56.4037 34.5854 56.3904C35.471 56.3726 36.0583 55.8252 36.0539 55.0643C36.0494 54.3033 35.4621 53.7649 34.5721 53.756C32.9345 53.7426 31.2924 53.7382 29.6548 53.756C28.7559 53.7649 28.2041 54.2944 28.2041 55.0776C28.2041 55.8608 28.7648 56.3726 29.6682 56.3904C30.487 56.4082 31.3058 56.3904 32.1246 56.3904H32.129Z" fill="#084E46"/>
<path d="M62.1042 64.3648C63.9955 66.2427 65.8778 68.1206 67.7691 69.994C68.5122 70.7283 68.8326 71.596 68.579 72.6195C68.0806 74.5998 65.6865 75.2584 64.2002 73.8121C62.438 72.0989 60.698 70.3634 58.9892 68.5967C58.562 68.1562 58.2728 68.1117 57.7076 68.3742C53.6759 70.2432 49.8044 69.8828 46.3779 67.057C42.9514 64.2313 41.7722 60.4666 42.9514 56.1812C44.1307 51.8914 47.0944 49.2926 51.4732 48.6073C55.625 47.9576 59.1049 49.4306 61.5569 52.8482C64.0088 56.2613 64.2091 59.9682 62.3979 63.7685C62.3089 63.9509 62.2199 64.1334 62.1042 64.3648ZM53.044 65.5396C56.6752 65.5529 59.6122 62.6426 59.6345 59.0159C59.6567 55.4114 56.7019 52.4566 53.0752 52.4566C49.4707 52.4566 46.5426 55.358 46.5203 58.9536C46.4981 62.5803 49.4173 65.5262 53.0396 65.544L53.044 65.5396Z" fill="#084E46"/>
<path d="M51.7936 14.8896C55.9943 19.0949 60.2174 23.3179 64.396 27.5009C64.3826 27.5009 64.2135 27.5276 64.0444 27.5276C61.321 27.5276 58.6021 27.5321 55.8787 27.5276C53.449 27.5232 51.7935 25.8811 51.7757 23.447C51.7579 20.7058 51.7713 17.9601 51.7757 15.2189C51.7757 15.0765 51.7936 14.9341 51.7936 14.8896Z" fill="#084E46"/>
</svg>
