<svg width="89" height="89" viewBox="0 0 89 89" fill="none" xmlns="http://www.w3.org/2000/svg">
<path d="M60.1195 44.5178C60.1195 52.0561 60.124 59.5944 60.1195 67.1327C60.1195 69.736 58.5576 71.8898 56.1546 72.5751C55.536 72.7531 54.8641 72.8154 54.2188 72.8154C43.8948 72.8287 33.5753 72.8287 23.2513 72.8243C19.669 72.8243 17.3461 70.4791 17.3461 66.888C17.3461 53.9607 17.3461 41.0335 17.3328 28.1107C17.3328 27.55 17.5152 27.1539 17.9024 26.7668C21.1865 23.5049 24.4661 20.2342 27.7191 16.9412C28.262 16.3938 28.796 16.158 29.5925 16.1669C34.8747 16.2114 40.1613 16.1891 45.4434 16.1936C48.3537 16.1936 51.2596 16.1936 54.1699 16.1936C57.7966 16.198 60.124 18.5209 60.124 22.1477C60.124 29.6059 60.124 37.0596 60.124 44.5178H60.1195ZM19.2285 28.707C19.2285 29.0185 19.2285 29.2365 19.2285 29.459C19.2285 41.9368 19.2285 54.4146 19.2285 66.888C19.2285 69.4378 20.737 70.9419 23.278 70.9419C33.5797 70.9419 43.8859 70.9419 54.1877 70.9419C56.6975 70.9419 58.2194 69.4423 58.2194 66.9369C58.2194 52.0027 58.2194 37.0641 58.2194 22.1299C58.2194 19.5711 56.7197 18.0848 54.1699 18.0848C46.3023 18.0848 38.4391 18.0848 30.5715 18.0848C30.3535 18.0848 30.1354 18.0848 29.8684 18.0848C29.8684 18.383 29.8684 18.6055 29.8684 18.8235C29.8684 20.5234 29.8862 22.2233 29.864 23.9232C29.8373 26.0414 28.569 27.8303 26.611 28.44C26.0192 28.6269 25.365 28.6803 24.7376 28.6936C22.9398 28.7248 21.1375 28.707 19.2285 28.707ZM20.7815 26.8068C22.1833 26.8068 23.6028 26.8157 25.0224 26.8068C26.7178 26.7979 27.9104 25.6187 27.9371 23.9143C27.9594 22.5882 27.9416 21.2577 27.9371 19.9271C27.9371 19.8203 27.8926 19.718 27.8882 19.6913C25.5252 22.0542 23.1623 24.4172 20.7771 26.8024L20.7815 26.8068Z" fill="#084E46"/>
<path d="M65.3082 30.2733V32.2268C65.4951 32.2357 65.6909 32.258 65.8823 32.258C67.2974 32.2535 68.708 32.2402 70.1231 32.2357C70.3901 32.2357 70.6616 32.2446 70.9152 32.3025C71.6228 32.4582 71.872 33.1791 71.4982 33.7888C71.3202 34.078 71.1733 34.4385 71.1733 34.7678C71.16 44.0683 71.1733 53.3732 71.1689 62.6737C71.1689 62.9096 71.1021 63.1632 70.9998 63.3768C70.0875 65.3215 69.153 67.2572 68.2363 69.1974C68.0316 69.6291 67.7869 69.9806 67.2484 69.9762C66.7055 69.9762 66.4741 69.6113 66.2694 69.1841C65.3527 67.2439 64.4182 65.3081 63.506 63.3635C63.4036 63.1499 63.3413 62.8962 63.3413 62.6604C63.3413 53.0929 63.3413 43.5209 63.3502 33.9534C63.3502 30.389 63.3413 26.8245 63.3547 23.2601C63.3591 21.6759 64.0311 20.4343 65.4462 19.6912C66.7856 18.9836 68.1384 19.0593 69.4067 19.8959C70.5904 20.6791 71.1422 21.8272 71.1555 23.2334C71.1733 24.8131 71.1511 26.3884 71.1689 27.9682C71.1689 28.204 71.338 28.4354 71.3958 28.6802C71.4804 29.0139 71.6806 29.4322 71.5605 29.6814C71.4225 29.9573 70.9864 30.2421 70.6705 30.251C69.1174 30.3089 67.5599 30.2777 66.0024 30.2777C65.7844 30.2777 65.5619 30.2777 65.3038 30.2777L65.3082 30.2733ZM65.3127 34.1982V61.8149H69.1931V34.1982H65.3127ZM69.2331 28.3598C69.2331 26.5753 69.2509 24.822 69.2287 23.0687C69.2153 21.9651 68.3431 21.1463 67.2573 21.1463C66.1715 21.1463 65.3038 21.9696 65.2815 23.0687C65.2593 24.1501 65.2726 25.2359 65.2726 26.3217C65.2726 26.9892 65.2726 27.6611 65.2726 28.3598H69.2376H69.2331ZM67.2529 66.8211C67.7602 65.7487 68.2007 64.8231 68.6591 63.8574H65.8511C66.3139 64.8364 66.7456 65.7531 67.2529 66.8211Z" fill="#084E46"/>
<path d="M38.795 51.6511C43.2584 51.6511 47.7262 51.6511 52.1895 51.6511C52.4343 51.6511 52.6879 51.6378 52.9193 51.7045C53.3866 51.8336 53.6402 52.1629 53.6135 52.6613C53.5913 53.1285 53.3332 53.4222 52.8793 53.5201C52.6835 53.5646 52.4743 53.5646 52.2696 53.5646C43.2361 53.5646 34.2071 53.5646 25.1736 53.5646C24.9511 53.5646 24.7197 53.5557 24.5061 53.5023C24.0833 53.3911 23.7807 53.0707 23.8653 52.6568C23.932 52.3275 24.1812 51.9849 24.4482 51.7579C24.6129 51.6155 24.9555 51.6556 25.2181 51.6556C29.7437 51.6511 34.2694 51.6556 38.795 51.6556V51.6511Z" fill="#084E46"/>
<path d="M38.7194 55.7229C43.2273 55.7229 47.7307 55.7229 52.2385 55.7229C52.461 55.7229 52.6924 55.7184 52.9105 55.7718C53.3555 55.8831 53.6091 56.1857 53.618 56.6574C53.6269 57.1246 53.4 57.445 52.9505 57.5696C52.7191 57.6319 52.4655 57.6408 52.2207 57.6408C43.2095 57.6408 34.1982 57.6408 25.1825 57.6408C24.9422 57.6408 24.6218 57.6764 24.4705 57.5429C24.2035 57.3115 23.8787 56.9644 23.8787 56.6707C23.8787 56.377 24.2124 56.0344 24.4839 55.8074C24.6396 55.6784 24.9556 55.7229 25.1959 55.7229C29.7037 55.7229 34.2071 55.7229 38.715 55.7229H38.7194Z" fill="#084E46"/>
<path d="M38.7195 44.1396C34.2116 44.1396 29.7082 44.1396 25.2004 44.1396C24.9957 44.1396 24.7821 44.1574 24.5907 44.1129C24.1235 43.9972 23.8431 43.699 23.8431 43.1962C23.8431 42.7022 24.0968 42.3818 24.5818 42.2795C24.7999 42.235 25.0313 42.235 25.2538 42.235C34.2428 42.235 43.2362 42.235 52.2252 42.235C52.4299 42.235 52.6391 42.235 52.8349 42.2706C53.3466 42.3685 53.627 42.6933 53.6136 43.214C53.6047 43.7435 53.2888 44.0372 52.7859 44.1262C52.6079 44.1574 52.4166 44.1396 52.2341 44.1396C47.7263 44.1396 43.2229 44.1396 38.715 44.1396H38.7195Z" fill="#084E46"/>
<path d="M38.6705 48.2024C34.1226 48.2024 29.5791 48.2024 25.0312 48.2024C24.2792 48.2024 23.8876 47.9087 23.8431 47.3347C23.803 46.814 24.1101 46.409 24.6263 46.3378C24.8265 46.3067 25.0357 46.3156 25.2404 46.3156C34.2294 46.3156 43.2184 46.3156 52.2118 46.3156C52.3943 46.3156 52.5812 46.3067 52.7636 46.329C53.2843 46.3868 53.578 46.6805 53.618 47.2056C53.6536 47.7085 53.3154 48.1179 52.8037 48.1891C52.6034 48.2158 52.3943 48.2069 52.1896 48.2069C47.6862 48.2069 43.1783 48.2069 38.6749 48.2069L38.6705 48.2024Z" fill="#084E46"/>
<path d="M38.755 36.886C43.2406 36.886 47.7262 36.886 52.2073 36.886C52.412 36.886 52.6212 36.8638 52.8214 36.8994C53.3287 36.9973 53.618 37.3088 53.6135 37.8339C53.6135 38.3278 53.3421 38.6438 52.8615 38.7372C52.6212 38.7817 52.372 38.7728 52.1272 38.7728C43.2005 38.7728 34.2694 38.7728 25.3427 38.7728C25.0979 38.7728 24.8487 38.7817 24.6084 38.7417C24.1234 38.6527 23.8564 38.3456 23.8475 37.8472C23.8386 37.3177 24.1278 37.0062 24.6307 36.8994C24.8087 36.8638 25 36.886 25.1825 36.886C29.7081 36.886 34.2338 36.886 38.7594 36.886H38.755Z" fill="#084E46"/>
<path d="M38.7328 67.0525C34.2472 67.0525 29.7616 67.0525 25.2805 67.0525C24.2748 67.0525 23.852 66.7766 23.8387 66.1269C23.8253 65.455 24.2703 65.1613 25.2983 65.1613C34.1849 65.1613 43.0716 65.1613 51.9627 65.1613C52.2297 65.1613 52.4967 65.1479 52.7592 65.1746C53.2799 65.228 53.6314 65.6152 53.6136 66.118C53.5958 66.6387 53.3155 66.9546 52.7993 67.0303C52.5768 67.0614 52.3498 67.0525 52.1229 67.0525C47.6595 67.0525 43.1962 67.0525 38.7284 67.0525H38.7328Z" fill="#084E46"/>
<path d="M38.6927 34.6966C34.2071 34.6966 29.7215 34.6966 25.2403 34.6966C25.0356 34.6966 24.8265 34.7144 24.6262 34.6788C24.1412 34.5942 23.8608 34.3005 23.843 33.8021C23.8208 33.277 24.0967 32.9478 24.604 32.841C24.8398 32.792 25.0935 32.8142 25.3382 32.8142C34.2872 32.8142 43.2361 32.8142 52.1851 32.8142C53.173 32.8142 53.6135 33.0991 53.618 33.7443C53.6269 34.4029 53.1952 34.6966 52.2073 34.6966C47.7039 34.6966 43.1961 34.6966 38.6927 34.6966Z" fill="#084E46"/>
<path d="M38.7016 61.0941C43.205 61.0941 47.7129 61.0941 52.2163 61.0941C52.4432 61.0941 52.6746 61.0718 52.8882 61.1252C53.3599 61.2409 53.6225 61.5613 53.6136 62.0553C53.6002 62.5492 53.3288 62.8518 52.8482 62.9542C52.688 62.9853 52.5233 62.972 52.3587 62.972C43.2673 62.972 34.176 62.972 25.0802 62.972C24.2614 62.972 23.8787 62.7005 23.8386 62.1042C23.8075 61.5925 24.1279 61.1786 24.6307 61.1074C24.8532 61.0763 25.0802 61.0896 25.3071 61.0896C29.7705 61.0896 34.2338 61.0896 38.7016 61.0896V61.0941Z" fill="#084E46"/>
<path d="M43.3964 22.3123C46.5693 22.3123 49.7421 22.3123 52.915 22.3123C53.1197 22.3123 53.3244 22.3034 53.5291 22.3257C54.0764 22.3835 54.3835 22.7039 54.428 23.2424C54.468 23.7363 54.0586 24.1546 53.5113 24.2125C53.3511 24.2303 53.182 24.2214 53.0218 24.2214C46.636 24.2214 40.2503 24.2214 33.8645 24.2214C33.6821 24.2214 33.4952 24.2303 33.3127 24.2036C32.801 24.1235 32.4405 23.7052 32.4806 23.2246C32.5251 22.7128 32.8188 22.4013 33.3305 22.3301C33.513 22.3034 33.6999 22.3123 33.8823 22.3123C37.0552 22.3123 40.228 22.3123 43.4009 22.3123H43.3964Z" fill="#084E46"/>
<path d="M43.4721 26.8067C46.685 26.8067 49.8979 26.8067 53.1108 26.8067C53.2932 26.8067 53.4846 26.7889 53.6626 26.8334C54.161 26.958 54.4502 27.2962 54.4191 27.808C54.3924 28.2797 54.1209 28.609 53.6225 28.6802C53.4401 28.7069 53.2532 28.7024 53.0707 28.7024C46.685 28.7024 40.2992 28.7024 33.9135 28.7024C32.9345 28.7024 32.4806 28.4043 32.4761 27.7679C32.4717 27.1182 32.9345 26.8067 33.8957 26.8067C37.0863 26.8067 40.2814 26.8067 43.4721 26.8067Z" fill="#084E46"/>
</svg>
