<svg width="89" height="89" viewBox="0 0 89 89" fill="none" xmlns="http://www.w3.org/2000/svg">
<path d="M44.4555 69.4244C38.8841 69.4244 33.3082 69.4244 27.7368 69.4244C25.7076 69.4244 24.1902 68.3742 23.6784 66.5987C23.5494 66.1537 23.496 65.6731 23.496 65.2058C23.4826 58.3217 23.4915 51.442 23.4782 44.5578C23.4782 44.1529 23.6028 43.9437 23.9588 43.7479C30.656 40.0411 37.3444 36.3253 44.0283 32.6007C44.3843 32.4004 44.6424 32.436 44.9761 32.6229C51.6422 36.3387 58.3128 40.05 64.9923 43.7435C65.3794 43.9571 65.4817 44.1974 65.4817 44.6068C65.4728 51.4464 65.4773 58.2905 65.4729 65.1302C65.4729 67.7779 63.8263 69.4244 61.1786 69.4244C55.6072 69.4244 50.0313 69.4244 44.4599 69.4244H44.4555ZM30.0642 54.3478C30.0642 57.4584 30.0642 60.5734 30.0642 63.6839C30.0642 65.0857 30.4602 65.4862 31.8442 65.4862C33.1569 65.4862 34.4652 65.4862 35.778 65.4862C38.5993 65.4995 41.3672 65.1569 44.0817 64.3648C44.3531 64.2847 44.6824 64.3247 44.9717 64.3826C46.1331 64.6229 47.2768 64.9433 48.4427 65.1435C51.3663 65.6464 54.3256 65.4595 57.2671 65.4817C58.4374 65.4906 58.8913 65.0189 58.8913 63.8352C58.8913 57.5073 58.8913 51.1839 58.8913 44.856C58.8913 43.6233 58.4507 43.1783 57.2314 43.1783C54.8774 43.1783 52.5233 43.1694 50.1648 43.1783C48.3448 43.1872 46.587 43.5121 44.8871 44.1751C44.6379 44.273 44.3042 44.2285 44.0327 44.1662C42.72 43.877 41.425 43.3652 40.1034 43.2896C37.3043 43.1338 34.4964 43.1961 31.6929 43.1783C30.5225 43.1694 30.0686 43.6411 30.0642 44.8204C30.0642 47.9932 30.0642 51.1661 30.0642 54.3389V54.3478Z" fill="#084E46"/>
<path d="M69.4022 40.6685C69.4022 41.0557 69.4111 41.4473 69.4022 41.8344C69.38 42.671 68.9349 42.9291 68.1962 42.5197C65.6375 41.1046 63.0832 39.6806 60.5244 38.2566C55.5004 35.4665 50.4674 32.6808 45.4523 29.8728C44.767 29.4901 44.1885 29.499 43.5032 29.8817C36.0005 34.0692 28.4844 38.2344 20.9773 42.4085C19.9449 42.9825 19.5622 42.7556 19.5577 41.5763C19.5577 40.94 19.5533 40.3081 19.5577 39.6717C19.58 38.0163 20.2964 36.7792 21.7605 35.9693C25.1825 34.0781 28.5912 32.1735 32.0088 30.2778C35.8358 28.1507 39.6717 26.0369 43.4854 23.8876C44.1929 23.4871 44.7937 23.5004 45.4923 23.8876C52.4388 27.768 59.3719 31.6751 66.3717 35.462C68.5389 36.6324 69.7137 38.1587 69.4066 40.6596L69.4022 40.6685Z" fill="#084E46"/>
<path d="M28.1017 24.84C26.8335 24.84 25.5652 24.8444 24.297 24.84C23.0243 24.8311 22.2277 24.0434 22.201 22.7841C22.1921 22.3969 22.1921 22.0053 22.201 21.6182C22.2277 20.4656 22.9531 19.6246 24.0834 19.6068C26.7445 19.5667 29.4056 19.5712 32.0622 19.6068C33.1391 19.6201 33.8956 20.4033 33.9802 21.4713C34.0202 21.9786 34.0202 22.4948 33.9757 23.0021C33.8778 24.0968 33.0768 24.8222 31.9688 24.8355C30.6783 24.8489 29.3922 24.8355 28.1017 24.8355V24.84Z" fill="#084E46"/>
<path d="M24.1902 31.6083V27.4921H31.4125C31.4259 27.5232 31.4393 27.5544 31.4526 27.59C29.0541 28.9161 26.6555 30.2466 24.1947 31.6083H24.1902Z" fill="#084E46"/>
<path d="M56.248 62.8251C52.8349 62.8919 49.4618 62.9586 46.1732 61.9841C45.8172 61.8773 45.7994 61.6904 45.7994 61.4056C45.7994 56.6352 45.8083 51.8692 45.795 47.0988C45.795 46.7384 45.9329 46.5604 46.2489 46.4981C47.4059 46.2711 48.5584 45.924 49.7288 45.8617C51.7713 45.7549 53.8228 45.8261 55.8698 45.8261C55.9855 45.8261 56.1056 45.8439 56.2525 45.8573V62.8251H56.248ZM50.997 55.6562C51.3041 55.6562 51.6111 55.6562 51.9182 55.6562C52.2475 55.6562 52.5723 55.6695 52.8972 55.6562C53.7471 55.6161 54.3034 55.0955 54.3078 54.3479C54.3123 53.6003 53.756 53.044 52.915 53.0262C51.669 52.9995 50.4185 53.004 49.1725 53.0262C48.3137 53.044 47.7752 53.5691 47.7752 54.3301C47.7752 55.0955 48.3003 55.6206 49.1547 55.6517C49.7688 55.674 50.3829 55.6562 50.9925 55.6562H50.997ZM51.0504 50.4052C51.3575 50.4052 51.6645 50.4052 51.9716 50.4052C52.2964 50.4052 52.6257 50.4141 52.9506 50.4052C53.7338 50.374 54.2989 49.8356 54.3078 49.1147C54.3167 48.3893 53.7694 47.8197 52.9817 47.8064C51.6957 47.7841 50.4051 47.7886 49.1191 47.8064C48.3003 47.8197 47.7797 48.3315 47.7752 49.0835C47.7708 49.8534 48.3136 50.3874 49.1502 50.4096C49.7821 50.423 50.4185 50.4096 51.0504 50.4096V50.4052ZM51.0504 60.8805C51.7046 60.8805 52.3587 60.8983 53.0128 60.876C53.7649 60.8493 54.3034 60.3064 54.3123 59.6033C54.3212 58.878 53.7649 58.295 52.9906 58.2817C51.7046 58.2594 50.4141 58.2639 49.128 58.2817C48.327 58.2906 47.7886 58.8335 47.7797 59.5677C47.7708 60.3242 48.2825 60.8493 49.0924 60.8805C49.7466 60.9027 50.4007 60.8849 51.0549 60.8805H51.0504Z" fill="#084E46"/>
<path d="M32.7075 62.8429V45.8261C33.1391 45.8261 33.5441 45.8172 33.9446 45.8261C36.1918 45.8706 38.4436 45.8839 40.6908 45.9907C41.3672 46.0219 42.0347 46.3245 42.7067 46.4891C43.0671 46.5781 43.165 46.7873 43.165 47.1522C43.1517 51.9003 43.1517 56.6485 43.165 61.3966C43.165 61.7838 43.0315 61.9262 42.6711 62.0152C40.7397 62.5047 38.7906 62.8295 36.7926 62.834C35.4442 62.834 34.0959 62.834 32.703 62.834L32.7075 62.8429ZM37.9585 53.0173C37.3266 53.0173 36.6902 52.9995 36.0583 53.0173C35.2084 53.044 34.6522 53.578 34.6477 54.3256C34.6432 55.0732 35.1995 55.6294 36.0405 55.6472C37.2865 55.6739 38.537 55.6695 39.783 55.6472C40.6419 55.6339 41.1759 55.1043 41.1803 54.3389C41.1803 53.5735 40.6508 53.0484 39.7964 53.0173C39.1823 52.995 38.5682 53.0173 37.9585 53.0128V53.0173ZM37.9451 47.7974C37.9451 47.7974 37.9451 47.7974 37.9451 47.793C37.6203 47.793 37.291 47.793 36.9661 47.793C36.619 47.793 36.272 47.7841 35.9249 47.8019C35.1728 47.8464 34.6432 48.3893 34.6477 49.0968C34.6477 49.7955 35.195 50.3784 35.9337 50.3918C37.2599 50.4185 38.5904 50.4185 39.9209 50.3918C40.673 50.3784 41.1848 49.8133 41.1848 49.0879C41.1848 48.3581 40.6819 47.833 39.9121 47.8019C39.2579 47.7796 38.6037 47.7974 37.9496 47.7974H37.9451ZM37.8383 60.876C38.5325 60.876 39.2267 60.8982 39.9209 60.8715C40.6863 60.8404 41.1848 60.3019 41.1803 59.5721C41.1759 58.8512 40.6552 58.2994 39.8987 58.2816C38.5726 58.2594 37.242 58.2549 35.9115 58.2816C35.1772 58.295 34.6343 58.8913 34.6432 59.5899C34.6477 60.2975 35.1817 60.8404 35.9337 60.8715C36.5656 60.8938 37.202 60.876 37.8339 60.8715L37.8383 60.876Z" fill="#084E46"/>
</svg>
