<svg width="89" height="89" viewBox="0 0 89 89" fill="none" xmlns="http://www.w3.org/2000/svg">
<path d="M13.4168 34.8969C13.7728 33.8245 14.5516 33.2905 15.6107 32.9701C24.5107 30.26 33.4018 27.5322 42.2884 24.7865C44.0328 24.2481 45.7327 24.2481 47.4727 24.7865C56.3415 27.5233 65.2148 30.2378 74.0881 32.9612C74.2839 33.019 74.4753 33.0902 74.6666 33.1614C75.7168 33.5486 76.3265 34.3496 76.3309 35.3553C76.3354 36.3788 75.7168 37.2376 74.6355 37.5892C72.8466 38.1677 71.0443 38.7061 69.2465 39.2579C62.0153 41.4785 54.784 43.6946 47.5572 45.9285C45.7372 46.4936 43.9527 46.4758 42.1282 45.9107C36.0584 44.0239 29.9753 42.1727 23.901 40.2903C23.4738 40.1568 23.1712 40.2013 22.8553 40.5084C22.0454 41.2871 21.4936 42.1994 21.3779 43.3252C21.3556 43.521 21.4624 43.8014 21.6093 43.9304C23.2068 45.3233 23.2736 47.2012 21.7784 48.6919C21.636 48.8343 21.5648 49.1592 21.6093 49.3683C22.3658 52.866 23.1445 56.3593 23.9233 59.8525C24.2437 61.281 23.6207 62.0953 22.1744 62.0998C20.5146 62.1042 18.8547 62.1087 17.1993 62.0998C15.8198 62.0953 15.179 61.2854 15.4772 59.946C16.2515 56.4527 17.0258 52.9595 17.809 49.4662C17.8891 49.1013 17.8446 48.8477 17.5464 48.5584C16.1313 47.2101 16.2693 45.1853 17.7823 43.9393C17.9959 43.7613 18.1605 43.4276 18.2006 43.1472C18.3875 41.8478 18.8236 40.6508 19.5667 39.5694C19.6691 39.4226 19.767 39.2757 19.9049 39.071C18.472 38.626 17.1014 38.1543 15.7041 37.785C14.6183 37.4957 13.8129 36.9573 13.4124 35.8848V34.9014L13.4168 34.8969Z" fill="#084E46"/>
<path d="M27.4387 44.6736C29.192 45.212 30.8875 45.7282 32.5829 46.2489C35.5333 47.1522 38.4881 48.0467 41.434 48.9678C43.7524 49.6932 46.0575 49.6798 48.376 48.9589C52.8438 47.5705 57.3249 46.2088 61.8016 44.8338C61.9574 44.7848 62.1131 44.7448 62.349 44.678C62.4558 45.479 62.567 46.24 62.6605 47.0009C63.0076 49.8044 63.3369 52.6079 63.7062 55.407C63.813 56.2258 63.6306 56.9734 63.0432 57.4807C62.2333 58.1838 61.3655 58.8691 60.4177 59.3497C57.6765 60.7247 54.695 61.281 51.6868 61.6726C47.5483 62.2066 43.3964 62.2511 39.249 61.8061C35.6579 61.4189 32.1023 60.8271 28.8672 59.1049C28.0706 58.6822 27.3542 58.0636 26.6911 57.4451C26.1171 56.9066 25.9613 56.1679 26.0681 55.3536C26.5131 51.9226 26.927 48.4917 27.3497 45.0607C27.3631 44.9628 27.3987 44.8649 27.4476 44.6736H27.4387Z" fill="#084E46"/>
</svg>
